# xmcd
#
# Track frame offsets:
#	150
#	17354
#	33874
#	49982
#	62539
#	84686
#	104982
#	122702
#	139433
#	153744
#	176308
#	190913
#	205425
#	222295
#
# Disc length: 3158 seconds
#
# Revision: 2
# Processed by: cddbd v1.5.2PL0 Copyright (c) Steve Scherf et al.
# Submitted via: audiograbber 1.83.01
#
DISCID=ce0c540e
DTITLE=Vell Bakardy - Words Of Wisdom
DYEAR=2007
DGENRE=Hip-Hop
TTITLE0=Vell Bakardy
TTITLE1=Struzzla
TTITLE2=Body Is Bangin
TTITLE3=Forever Lord
TTITLE4=A Letter From The People
TTITLE5=Records And Tapes
TTITLE6=Leavum Alone
TTITLE7=No More Games (Ft. Da-Man)
TTITLE8=Forever [Pt. 2](Ft. The Popper)
TTITLE9=Strip Club (Ft. The Popper and Disasterix)
TTITLE10=Sucka Repelant Spray (Ft. K-Town and Orphan)
TTITLE11=The Ruler's Back
TTITLE12=Rattle The Trunk (Ft. K-Town)
TTITLE13=Family Tree (Ft. Black)
EXTD=
EXTT0=
EXTT1=
EXTT2=
EXTT3=
EXTT4=
EXTT5=
EXTT6=
EXTT7=
EXTT8=
EXTT9=
EXTT10=
EXTT11=
EXTT12=
EXTT13=
PLAYORDER=
